<svg fill="#F2F2F2" width="100pt" height="100pt" version="1.1" viewBox="0 0 100 100" xmlns="http://www.w3.org/2000/svg"><path d="m70.613 32.004c-0.66797 0.097656-1.2852 0.41797-1.75 0.90625-10.012 10.035-17.508 18.316-27.062 28l-10.875-9.1875c-0.60938-0.51562-1.3984-0.76953-2.1953-0.70312-0.79297 0.066407-1.5312 0.44531-2.0469 1.0586-0.51562 0.60938-0.76562 1.3984-0.69531 2.1953 0.066407 0.79687 0.44922 1.5312 1.0625 2.043l13 11c1.1953 1.0078 2.9648 0.92578 4.0625-0.1875 10.73-10.75 18.395-19.371 29-30 0.92969-0.90234 1.1758-2.3008 0.60547-3.4688-0.56641-1.1641-1.8203-1.832-3.1055-1.6562z"/></svg>
